<svg width="25" height="24" viewBox="0 0 25 24" fill="none" xmlns="http://www.w3.org/2000/svg">
<path d="M20.375 12.5V6.8C20.375 5.11984 20.375 4.27976 20.048 3.63803C19.7604 3.07354 19.3015 2.6146 18.737 2.32698C18.0952 2 17.2552 2 15.575 2H9.175C7.49484 2 6.65476 2 6.01303 2.32698C5.44854 2.6146 4.9896 3.07354 4.70198 3.63803C4.375 4.27976 4.375 5.11984 4.375 6.8V17.2C4.375 18.8802 4.375 19.7202 4.70198 20.362C4.9896 20.9265 5.44854 21.3854 6.01303 21.673C6.65476 22 7.49484 22 9.175 22H12.375M14.375 11H8.375M10.375 15H8.375M16.375 7H8.375M14.875 19L16.875 21L21.375 16.5" stroke="#C6C6C6" stroke-width="2" stroke-linecap="round" stroke-linejoin="round"/>
</svg>
