<svg width="25" height="24" viewBox="0 0 25 24" fill="none" xmlns="http://www.w3.org/2000/svg">
<path d="M14.625 11H8.625M10.625 15H8.625M16.625 7H8.625M20.625 6.8V17.2C20.625 18.8802 20.625 19.7202 20.298 20.362C20.0104 20.9265 19.5515 21.3854 18.987 21.673C18.3452 22 17.5052 22 15.825 22H9.425C7.74484 22 6.90476 22 6.26303 21.673C5.69854 21.3854 5.2396 20.9265 4.95198 20.362C4.625 19.7202 4.625 18.8802 4.625 17.2V6.8C4.625 5.11984 4.625 4.27976 4.95198 3.63803C5.2396 3.07354 5.69854 2.6146 6.26303 2.32698C6.90476 2 7.74484 2 9.425 2H15.825C17.5052 2 18.3452 2 18.987 2.32698C19.5515 2.6146 20.0104 3.07354 20.298 3.63803C20.625 4.27976 20.625 5.11984 20.625 6.8Z" stroke="#C6C6C6" stroke-width="2" stroke-linecap="round" stroke-linejoin="round"/>
</svg>
